<svg xmlns="http://www.w3.org/2000/svg" width="48" height="48" fill="none"><path fill="oklch(63.5% 0.1004 76.62)" fill-rule="evenodd" d="M.096 17.55C1.147 14.302 4.146 12 7.697 12s6.602 2.3 7.602 5.55c.4 1.2-.5 2.45-1.801 2.45h-.25c-.85 0-1.5-.55-1.8-1.35A4.001 4.001 0 0 0 7.697 16a4.001 4.001 0 0 0-3.75 2.65c-.301.8-.952 1.35-1.801 1.35h-.25c-1.301 0-2.201-1.25-1.8-2.45Zm0 8C1.147 22.3 4.146 20 7.697 20s6.602 2.3 7.602 5.55c.4 1.2-.5 2.45-1.801 2.45h-.25c-.85 0-1.5-.551-1.8-1.35A4 4 0 0 0 7.697 24a4.001 4.001 0 0 0-3.75 2.65C3.646 27.45 2.995 28 2.146 28h-.25c-1.301 0-2.201-1.25-1.8-2.45ZM7.697 28c-3.55 0-6.55 2.3-7.6 5.55-.401 1.2.5 2.45 1.8 2.45h.25c.85 0 1.5-.55 1.8-1.35A4.001 4.001 0 0 1 7.698 32c1.702 0 3.202 1.1 3.75 2.65.301.799.952 1.35 1.801 1.35h.25c1.3 0 2.201-1.25 1.8-2.45-.999-3.25-4.05-5.55-7.6-5.55Zm32.605 0c-3.55 0-6.55 2.3-7.601 5.55-.4 1.2.5 2.45 1.8 2.45h.25c.85 0 1.5-.55 1.801-1.35a4.001 4.001 0 0 1 3.75-2.65c1.701 0 3.201 1.1 3.75 2.65.3.799.951 1.35 1.8 1.35h.25c1.302 0 2.202-1.25 1.802-2.45C46.853 30.3 43.853 28 40.302 28Zm0-8c-3.55 0-6.55 2.3-7.601 5.55-.4 1.2.5 2.45 1.8 2.45h.25c.85 0 1.5-.55 1.801-1.35a4 4 0 0 1 3.75-2.65c1.701 0 3.201 1.1 3.75 2.65.3.8.951 1.35 1.8 1.35h.25c1.302 0 2.202-1.25 1.802-2.45-1.051-3.249-4.051-5.55-7.602-5.55ZM24 28c-3.55 0-6.55 2.3-7.6 5.55-.401 1.2.5 2.45 1.8 2.45h.25c.85 0 1.5-.55 1.8-1.35A4.001 4.001 0 0 1 24 32c1.702 0 3.202 1.1 3.75 2.65.301.799.952 1.35 1.801 1.35h.25c1.301 0 2.201-1.25 1.801-2.45C30.552 30.3 27.551 28 24 28Zm-7.6-2.45C17.45 22.3 20.45 20 24 20c3.551 0 6.551 2.3 7.602 5.55.4 1.2-.5 2.45-1.801 2.45h-.25c-.85 0-1.5-.551-1.8-1.35A4 4 0 0 0 24 24a4.001 4.001 0 0 0-3.75 2.65c-.301.799-.952 1.35-1.801 1.35h-.25c-1.301 0-2.201-1.25-1.8-2.45ZM24 12c-3.55 0-6.55 2.301-7.6 5.551-.401 1.2.5 2.45 1.8 2.45h.25c.85 0 1.5-.551 1.8-1.35A4.001 4.001 0 0 1 24 16c1.702 0 3.202 1.1 3.75 2.65.301.799.952 1.35 1.801 1.35h.25c1.301 0 2.201-1.25 1.801-2.45-1.05-3.25-4.051-5.55-7.602-5.55Zm10.752 8h-.25c-1.3 0-2.2-1.25-1.8-2.449 1.05-3.25 4.05-5.55 7.6-5.55 3.551 0 6.552 2.3 7.602 5.55.4 1.2-.5 2.45-1.8 2.45h-.25c-.85 0-1.5-.552-1.801-1.35-.55-1.551-2-2.65-3.75-2.65a4 4 0 0 0-3.75 2.65c-.301.798-.951 1.35-1.8 1.35Z" clip-rule="evenodd"/></svg>